<svg width="37" height="29" viewBox="0 0 37 29" fill="none" xmlns="http://www.w3.org/2000/svg">
<path d="M37.0001 3.429C35.6771 4.015 34.2541 4.406 32.7531 4.591C34.2791 3.685 35.4531 2.24 36.0041 0.533C34.5761 1.37 32.9941 1.985 31.3111 2.309C29.9671 0.884 28.0501 0 25.9261 0C21.8461 0 18.5391 3.278 18.5391 7.32C18.5391 7.892 18.6061 8.449 18.7321 8.99C12.5941 8.682 7.15007 5.764 3.50807 1.336C2.86807 2.418 2.50807 3.685 2.50807 5.022C2.50807 7.563 3.80907 9.8 5.79307 11.118C4.58207 11.081 3.44207 10.744 2.44407 10.204C2.44407 10.226 2.44407 10.259 2.44407 10.29C2.44407 13.841 4.99107 16.798 8.36707 17.471C7.75007 17.64 7.09807 17.734 6.42607 17.734C5.94907 17.734 5.48407 17.68 5.03407 17.599C5.97407 20.501 8.70107 22.622 11.9321 22.685C9.40407 24.645 6.22007 25.819 2.75807 25.819C2.16007 25.819 1.57507 25.785 0.99707 25.715C4.26807 27.786 8.15207 29 12.3211 29C25.9061 29 33.3381 17.844 33.3381 8.166C33.3381 7.849 33.3281 7.533 33.3131 7.221C34.7631 6.197 36.0131 4.905 37.0001 3.429Z" fill="white"/>
</svg>
